<?xml version="1.0" encoding="UTF-8"?>
<svg id="Layer_1" data-name="Layer 1" xmlns="http://www.w3.org/2000/svg" viewBox="0 0 512 512">
  <defs>
    <style>
      .cls-1 {
        fill: #2f7f00;
      }

      .cls-1, .cls-2, .cls-3 {
        stroke: #fff;
        stroke-miterlimit: 10;
        stroke-width: 5px;
      }

      .cls-4, .cls-2 {
        fill: #ffd600;
      }

      .cls-3 {
        fill: #d17e19;
      }
    </style>
  </defs>
  <circle class="cls-4" cx="256" cy="256" r="256"/>
  <g>
    <path class="cls-1" d="M234,128.6033c8.4385-18.4026,0-59.4857,0-59.4857l29.4731-19.094s19.0313,67.1976,13.0214,78.2301l1.1734,13.7674h-43.6679v-13.4178Z"/>
    <path class="cls-3" d="M256.5008,132.2183c12.5206-.0211,15.0247-3.0088,27.0445-5.0147s8.0132-6.0177,26.0428-7.0206c119.0167-6.6206,156.2569,269.7935,17.028,269.7935-32.0527,0-52.4081-9.9735-70.1153-10.0295-17.9551-.0568-39.0642,10.0295-71.1169,10.0295-139.2289,0-101.9887-276.4141,17.028-269.7935,18.0296,1.0029,14.0231,5.0147,26.0428,7.0206s15.5255,4.9937,28.0461,5.0147Z"/>
    <polygon class="cls-2" points="342 214.5211 309.699 171.5211 282 214.5211 342 214.5211"/>
    <polygon class="cls-2" points="170 214.5211 202.301 171.5211 230 214.5211 170 214.5211"/>
    <path class="cls-2" d="M256,274.9522s72.7933,1.2613,130-29.9522l-15,46-18-17-4,39-28-32-12,47-25.8783-41.7523-9.1217,48.7523-18-45-18,45-9.1217-48.7523-25.8783,41.7523-12-47-28,32-4-39-18,17-15-46c57.2067,31.2135,130,29.9522,130,29.9522Z"/>
  </g>
</svg>